<svg xmlns="http://www.w3.org/2000/svg" xmlns:xlink="http://www.w3.org/1999/xlink" viewBox="0,0,256,256" width="240px" height="240px" fill-rule="nonzero"><g fill="#6eb981" fill-rule="nonzero" stroke="none" stroke-width="1" stroke-linecap="butt" stroke-linejoin="miter" stroke-miterlimit="10" stroke-dasharray="" stroke-dashoffset="0" font-family="none" font-weight="none" font-size="none" text-anchor="none" style="mix-blend-mode: normal"><g transform="scale(5.33333,5.33333)"><path d="M37,6h-26c-2.761,0 -5,2.239 -5,5v5.29l6.406,3.7c0.309,0.178 0.689,0.179 0.999,0.001l12.747,-7.329c0.152,-0.087 0.338,-0.089 0.492,-0.004l1.666,0.923c0.34,0.189 0.344,0.677 0.007,0.871l-14.917,8.572c-0.309,0.178 -0.689,0.177 -0.998,-0.001l-6.402,-3.694v3.045l6.406,3.7c0.309,0.178 0.689,0.179 0.999,0.001l12.747,-7.329c0.152,-0.087 0.338,-0.089 0.492,-0.004l1.666,0.923c0.34,0.189 0.344,0.677 0.007,0.871l-14.917,8.572c-0.309,0.178 -0.689,0.177 -0.998,-0.001l-6.402,-3.694v3.045l6.406,3.7c0.309,0.178 0.689,0.179 0.999,0.001l12.747,-7.329c0.152,-0.087 0.338,-0.089 0.492,-0.004l1.666,0.923c0.34,0.189 0.344,0.677 0.007,0.871l-14.917,8.572c-0.309,0.178 -0.689,0.177 -0.998,-0.001l-6.402,-3.694v5.503c0,2.761 2.239,5 5,5h26c2.761,0 5,-2.239 5,-5v-26c0,-2.761 -2.239,-5 -5,-5z"></path></g></g></svg>